# xmcd
#
# Track frame offsets:
#	150
#	49656
#	88661
#	143416
#	201546
#
# Disc length: 3122 seconds
#
# Revision: 1
# Processed by: cddbd v1.5.2PL0 Copyright (c) Steve Scherf et al.
# Submitted via: audiograbber 1.83.01
#
DISCID=400c3005
DTITLE=Grateful Dead - 78-04-06 Curtis Hixon Convention Hall, Tampa FL
DYEAR=1900
DGENRE=
TTITLE0=Samson and Delilah
TTITLE1=It Must Have Been The Roses
TTITLE2=Estimated Prophet
TTITLE3=He's Gone
TTITLE4=Drums
EXTD=
EXTT0=
EXTT1=
EXTT2=
EXTT3=
EXTT4=
PLAYORDER=
